# xmcd CD database file
#
# Track frame offsets:
#	150
#	12852
#	25152
#	35125
#	44887
#	54145
#	71007
#	86770
#	99140
#	111792
#	122407
#	134987
#	148695
#
# Disc length: 2128 seconds
#
# Revision: 3
# Processed by: cddbd v1.4PL0 Copyright (c) Steve Scherf et al.
# Submitted via: CDex 1.40Beta8
#
DISCID=b7084e0d
DTITLE=The Flatlanders - More A Legend than A Band
DYEAR=1990
DGENRE=Country
TTITLE0=Dallas
TTITLE1=Tonight I'm Gonna Go Downtown
TTITLE2=You've Never Seen Me Cry
TTITLE3=She Had Everything
TTITLE4=Rose From The Mountain
TTITLE5=One Day At A Time
TTITLE6=Jole Blon
TTITLE7=Down In My Hometown
TTITLE8=Bhagavan Decreed
TTITLE9=The Heart You Left Behind
TTITLE10=Keeper Of The Mountain
TTITLE11=Stars In My Life
TTITLE12=One Road More 
EXTD=YEAR: 1990 ID3G: 2
EXTT0=
EXTT1=
EXTT2=
EXTT3=
EXTT4=
EXTT5=
EXTT6=
EXTT7=
EXTT8=
EXTT9=
EXTT10=
EXTT11=
EXTT12=
PLAYORDER=
